<svg width="132" height="34" viewBox="0 0 132 34" fill="none" xmlns="http://www.w3.org/2000/svg">
<title>interswitch brand logo</title>
<g id="Group">
<path id="Path" d="M43.3606 17.7557L43.8089 15.3702C43.8089 15.3702 40.3566 14.3223 37.5469 16.2657V25.8086H40.5306V18.0554C41.7196 17.16 43.3606 17.7557 43.3606 17.7557Z" fill="var(--logo-color, #00425f)"/>
<g id="Group_2">
<g id="Clipped">
<mask id="mask0_13070_41600" style="mask-type:luminance" maskUnits="userSpaceOnUse" x="37" y="15" width="7" height="11">
<path id="interswitch@1x-a" fill-rule="evenodd" clip-rule="evenodd" d="M37.5469 16.2657C38.8988 15.3309 40.3995 15.0882 41.5928 15.0884C42.8796 15.0884 43.8091 15.3704 43.8091 15.3704L43.3606 17.7559C43.3606 17.7559 41.7196 17.1601 40.5306 18.0554V25.8086H37.5469V16.2657Z" fill="white"/>
</mask>
<g mask="url(#mask0_13070_41600)">
<path id="Path_2" d="M-144.086 55.3867L276.101 55.3867L276.101 -500.952H-144.086L-144.086 55.3867Z" fill="var(--logo-color, #00425f)"/>
</g>
</g>
</g>
<g id="Group_3">
<g id="Clipped_2">
<mask id="mask1_13070_41600" style="mask-type:luminance" maskUnits="userSpaceOnUse" x="37" y="15" width="7" height="11">
<path id="interswitch@1x-c" fill-rule="evenodd" clip-rule="evenodd" d="M37.5469 16.2657C38.8988 15.3309 40.3993 15.0884 41.5928 15.0884C42.8796 15.0884 43.8091 15.3704 43.8091 15.3704L43.3606 17.7559C43.3606 17.7559 41.7196 17.1601 40.5306 18.0554V25.8086H37.5469V16.2657Z" fill="white"/>
</mask>
<g mask="url(#mask1_13070_41600)">
<path id="Path_3" d="M32.5469 30.4844H48.8135V10.4138H32.5469V30.4844Z" fill="var(--logo-color, #00425f)"/>
</g>
</g>
</g>
<path id="Path_4" d="M17.6406 12.6525L20.623 12.1274V15.231H23.5742V17.713H20.623V21.4144C20.623 22.045 20.7321 22.5455 20.9552 22.9157C21.1757 23.2915 21.618 23.4778 22.2821 23.4778C22.6069 23.4778 22.933 23.4486 23.2771 23.3869C23.6114 23.3241 23.9231 23.2434 24.2037 23.1378L24.6257 25.4627C24.2647 25.6074 23.8656 25.7331 23.4257 25.8396C22.9845 25.945 22.4426 26 21.8025 26C20.9887 26 20.3161 25.8891 19.7814 25.6691C19.2493 25.4492 18.8215 25.1406 18.5025 24.7467C18.1836 24.3563 17.9593 23.8773 17.8335 23.3163C17.7053 22.7563 17.6406 22.138 17.6406 21.4559V12.6525Z" fill="var(--logo-color, #00425f)"/>
<g id="Group_4">
<g id="Clipped_3">
<mask id="mask2_13070_41600" style="mask-type:luminance" maskUnits="userSpaceOnUse" x="17" y="12" width="8" height="14">
<path id="interswitch@1x-e" fill-rule="evenodd" clip-rule="evenodd" d="M17.6406 12.6525L20.623 12.1274V15.231H23.5742V17.713H20.623V21.4144C20.623 22.0451 20.7321 22.5455 20.955 22.9157C21.1755 23.2917 21.6178 23.4778 22.2819 23.4778C22.6067 23.4778 22.9326 23.4486 23.2769 23.3869C23.6112 23.3241 23.9231 23.2434 24.2037 23.138L24.6255 25.4627C24.2647 25.6076 23.8654 25.7333 23.4255 25.8398C22.9843 25.9452 22.4425 26 21.8023 26C20.9883 26 20.3159 25.8891 19.7814 25.6691C19.2491 25.4492 18.8211 25.1406 18.5023 24.7469C18.1834 24.3563 17.9593 23.8773 17.8335 23.3163C17.7051 22.7563 17.6406 22.1382 17.6406 21.4559V12.6525Z" fill="white"/>
</mask>
<g mask="url(#mask2_13070_41600)">
<path id="Path_5" d="M-144.078 55.3867L276.109 55.3867L276.109 -500.952H-144.078L-144.078 55.3867Z" fill="var(--logo-color, #00425f)"/>
</g>
</g>
<g id="Clipped_4">
<mask id="mask3_13070_41600" style="mask-type:luminance" maskUnits="userSpaceOnUse" x="17" y="12" width="8" height="14">
<path id="interswitch@1x-e_2" fill-rule="evenodd" clip-rule="evenodd" d="M17.6406 12.6525L20.623 12.1274V15.231H23.5742V17.713H20.623V21.4144C20.623 22.0451 20.7321 22.5455 20.955 22.9157C21.1755 23.2917 21.6178 23.4778 22.2819 23.4778C22.6067 23.4778 22.9326 23.4486 23.2769 23.3869C23.6112 23.3241 23.9231 23.2434 24.2037 23.138L24.6255 25.4627C24.2647 25.6076 23.8654 25.7333 23.4255 25.8398C22.9843 25.9452 22.4425 26 21.8023 26C20.9883 26 20.3159 25.8891 19.7814 25.6691C19.2491 25.4492 18.8211 25.1406 18.5023 24.7469C18.1834 24.3563 17.9593 23.8773 17.8335 23.3163C17.7051 22.7563 17.6406 22.1382 17.6406 21.4559V12.6525Z" fill="white"/>
</mask>
<g mask="url(#mask3_13070_41600)">
<path id="Path_6" d="M12.6406 30.6758H29.63V7.45273H12.6406L12.6406 30.6758Z" fill="var(--logo-color, #00425f)"/>
</g>
</g>
</g>
<path id="Path_7" d="M48.2288 23.6709C48.7743 23.6709 49.1602 23.6146 49.3893 23.5092C49.6169 23.4027 49.7272 23.194 49.7272 22.8888C49.7272 22.6475 49.5834 22.4378 49.2884 22.2593C48.9936 22.0776 48.55 21.8757 47.9484 21.6455C47.482 21.4716 47.0577 21.2923 46.6752 21.1071C46.2977 20.9187 45.9741 20.6987 45.7068 20.4372C45.4404 20.177 45.2343 19.8649 45.0857 19.5015C44.937 19.1446 44.8665 18.7127 44.8665 18.2032C44.8665 17.2169 45.2343 16.4348 45.9669 15.8615C46.7004 15.2904 47.7051 14.9987 48.9876 14.9987C49.629 14.9987 50.2427 15.0559 50.8301 15.1715C51.4163 15.2837 51.8851 15.4117 52.2289 15.5406L51.7099 17.8631C51.3623 17.7431 50.9848 17.6377 50.5784 17.5457C50.1719 17.4516 49.7141 17.4021 49.2081 17.4021C48.2744 17.4021 47.8068 17.6646 47.8068 18.1841C47.8068 18.3041 47.8272 18.4108 47.868 18.5039C47.9087 18.5982 47.988 18.6879 48.1055 18.7743C48.2288 18.8597 48.3895 18.956 48.598 19.0549C48.8053 19.1592 49.0691 19.2668 49.3893 19.3892C50.0401 19.6315 50.5807 19.8671 51.0076 20.1051C51.4354 20.3429 51.7711 20.5933 52.0193 20.8713C52.2661 21.143 52.4413 21.4438 52.5395 21.7779C52.6378 22.1113 52.6893 22.4961 52.6893 22.9349C52.6893 23.9749 52.2985 24.7614 51.5205 25.2932C50.7389 25.8229 49.6336 26.0898 48.206 26.0898C47.2733 26.0898 46.4966 26.0125 45.8769 25.8499C45.2548 25.6916 44.8256 25.5549 44.5859 25.4493L45.0857 23.0279C45.5905 23.2277 46.1155 23.3824 46.6454 23.4993C47.1824 23.6137 47.7051 23.6709 48.2288 23.6709Z" fill="var(--logo-color, #00425f)"/>
<g id="Group_5">
<g id="Clipped_5">
<mask id="mask4_13070_41600" style="mask-type:luminance" maskUnits="userSpaceOnUse" x="44" y="15" width="9" height="12">
<path id="interswitch@1x-g" fill-rule="evenodd" clip-rule="evenodd" d="M45.9669 15.8616C46.7006 15.2904 47.7051 14.9987 48.9876 14.9987C49.6292 14.9987 50.2429 15.0559 50.8303 15.1715C51.4163 15.2837 51.885 15.4115 52.2291 15.5406L51.7101 17.8631C51.3623 17.7431 50.985 17.6377 50.5784 17.5457C50.1721 17.4514 49.7141 17.4023 49.2083 17.4023C48.2744 17.4023 47.807 17.6645 47.807 18.1841C47.807 18.3041 47.8272 18.4108 47.868 18.5039C47.9089 18.5982 47.9882 18.6879 48.1057 18.7743C48.2288 18.8597 48.3897 18.956 48.5982 19.0549C48.8055 19.159 49.0691 19.267 49.3893 19.3892C50.0403 19.6315 50.5809 19.8671 51.0076 20.1051C51.4356 20.3429 51.7713 20.5931 52.0195 20.8713C52.2663 21.143 52.4413 21.4436 52.5397 21.7779C52.638 22.1113 52.6893 22.4961 52.6893 22.9349C52.6893 23.9749 52.2985 24.7615 51.5207 25.2932C50.7391 25.8229 49.6338 26.0898 48.2062 26.0898C47.2735 26.0898 46.4968 26.0125 45.8771 25.8499C45.2548 25.6916 44.8258 25.5549 44.5859 25.4493L45.0859 23.0279C45.5906 23.2278 46.1155 23.3824 46.6454 23.4993C47.1824 23.6135 47.7051 23.6709 48.2288 23.6709C48.7743 23.6709 49.1604 23.6148 49.3893 23.5092C49.6171 23.4027 49.7274 23.194 49.7274 22.8888C49.7274 22.6475 49.5836 22.4378 49.2886 22.2593C48.9936 22.0776 48.55 21.8757 47.9484 21.6455C47.482 21.4716 47.0579 21.2923 46.6752 21.1071C46.2979 20.9187 45.9741 20.6987 45.707 20.4372C45.4406 20.1768 45.2345 19.8649 45.0859 19.5015C44.9372 19.1444 44.8665 18.7127 44.8665 18.2032C44.8665 17.2171 45.2345 16.435 45.9669 15.8616Z" fill="white"/>
</mask>
<g mask="url(#mask4_13070_41600)">
<path id="Path_8" d="M-144.078 55.3867L276.109 55.3867L276.109 -500.952H-144.078L-144.078 55.3867Z" fill="var(--logo-color, #00425f)"/>
</g>
</g>
<g id="Clipped_6">
<mask id="mask5_13070_41600" style="mask-type:luminance" maskUnits="userSpaceOnUse" x="44" y="15" width="9" height="12">
<path id="interswitch@1x-g_2" fill-rule="evenodd" clip-rule="evenodd" d="M45.9669 15.8616C46.7006 15.2904 47.7051 14.9987 48.9876 14.9987C49.6292 14.9987 50.2429 15.0559 50.8303 15.1715C51.4163 15.2837 51.885 15.4115 52.2291 15.5406L51.7101 17.8631C51.3623 17.7431 50.985 17.6377 50.5784 17.5457C50.1721 17.4514 49.7141 17.4023 49.2083 17.4023C48.2744 17.4023 47.807 17.6645 47.807 18.1841C47.807 18.3041 47.8272 18.4108 47.868 18.5039C47.9089 18.5982 47.9882 18.6879 48.1057 18.7743C48.2288 18.8597 48.3897 18.956 48.5982 19.0549C48.8055 19.159 49.0691 19.267 49.3893 19.3892C50.0403 19.6315 50.5809 19.8671 51.0076 20.1051C51.4356 20.3429 51.7713 20.5931 52.0195 20.8713C52.2663 21.143 52.4413 21.4436 52.5397 21.7779C52.638 22.1113 52.6893 22.4961 52.6893 22.9349C52.6893 23.9749 52.2985 24.7615 51.5207 25.2932C50.7391 25.8229 49.6338 26.0898 48.2062 26.0898C47.2735 26.0898 46.4968 26.0125 45.8771 25.8499C45.2548 25.6916 44.8258 25.5549 44.5859 25.4493L45.0859 23.0279C45.5906 23.2278 46.1155 23.3824 46.6454 23.4993C47.1824 23.6135 47.7051 23.6709 48.2288 23.6709C48.7743 23.6709 49.1604 23.6148 49.3893 23.5092C49.6171 23.4027 49.7274 23.194 49.7274 22.8888C49.7274 22.6475 49.5836 22.4378 49.2886 22.2593C48.9936 22.0776 48.55 21.8757 47.9484 21.6455C47.482 21.4716 47.0579 21.2923 46.6752 21.1071C46.2979 20.9187 45.9741 20.6987 45.707 20.4372C45.4406 20.1768 45.2345 19.8649 45.0859 19.5015C44.9372 19.1444 44.8665 18.7127 44.8665 18.2032C44.8665 17.2171 45.2345 16.435 45.9669 15.8616Z" fill="white"/>
</mask>
<g mask="url(#mask5_13070_41600)">
<path id="Path_9" d="M39.5859 30.7656H57.6939V10.3241H39.5859V30.7656Z" fill="var(--logo-color, #00425f)"/>
</g>
</g>
</g>
<path id="Path_10" d="M61.8788 19.7658C61.6115 20.7802 61.3298 21.7901 61.029 22.7886C60.7291 23.7906 60.4102 24.7983 60.0808 25.8125H57.7588C57.5178 25.2515 57.2554 24.5851 56.9748 23.8119C56.6918 23.0355 56.403 22.1928 56.0997 21.2762C55.7999 20.3627 55.4932 19.3957 55.179 18.3723C54.8637 17.3536 54.5581 16.3235 54.2656 15.2811H57.4087C57.513 15.7602 57.6316 16.2866 57.7598 16.853C57.887 17.4208 58.0213 18.0054 58.1615 18.6069C58.3018 19.2061 58.4516 19.8084 58.605 20.4166C58.7596 21.0248 58.918 21.6071 59.0784 22.1672C59.2523 21.5803 59.4226 20.9811 59.5892 20.3673C59.7534 19.7525 59.9153 19.1487 60.0698 18.5553C60.2222 17.9628 60.372 17.3873 60.5086 16.833C60.6477 16.2796 60.7712 15.7602 60.8803 15.2811H63.0392C63.1494 15.7602 63.2655 16.2796 63.401 16.833C63.5328 17.3873 63.6733 17.9628 63.8219 18.5553C63.9657 19.1487 64.1228 19.7525 64.2798 20.3673C64.4415 20.9811 64.6071 21.5803 64.7786 22.1672C64.9403 21.6071 65.101 21.0248 65.2627 20.4166C65.4246 19.8084 65.5767 19.2061 65.7158 18.6069C65.855 18.0054 65.9892 17.4208 66.1187 16.853C66.2469 16.2866 66.3633 15.7602 66.4698 15.2811L69.5722 15.2811C69.2774 16.3235 68.9741 17.3536 68.6589 18.3723C68.3411 19.3957 68.0378 20.3627 67.7346 21.2762C67.4359 22.1928 67.1412 23.0355 66.8546 23.8119C66.5659 24.5851 66.2996 25.2515 66.0624 25.8125H63.7405C63.4046 24.7983 63.0787 23.7906 62.7574 22.7886C62.4373 21.7901 62.1472 20.7802 61.8788 19.7658Z" fill="var(--logo-color, #00425f)"/>
<g id="Group_6">
<g id="Clipped_7">
<mask id="mask6_13070_41600" style="mask-type:luminance" maskUnits="userSpaceOnUse" x="54" y="15" width="16" height="11">
<path id="interswitch@1x-i" fill-rule="evenodd" clip-rule="evenodd" d="M66.4698 15.2811L69.5722 15.2811C69.2774 16.3235 68.9741 17.3536 68.6587 18.3722C68.3411 19.3957 68.0378 20.3629 67.7344 21.2762C67.4359 22.1928 67.1412 23.0355 66.8544 23.8119C66.5657 24.5851 66.2996 25.2513 66.0622 25.8125H63.7403C63.4046 24.7983 63.0787 23.7904 62.7574 22.7884C62.4373 21.7901 62.1472 20.7802 61.8788 19.7658C61.6113 20.7802 61.3296 21.7901 61.029 22.7884C60.7291 23.7904 60.4102 24.7983 60.0806 25.8125H57.7586C57.5176 25.2513 57.2552 24.5851 56.9746 23.8119C56.6918 23.0355 56.4028 22.1928 56.0997 21.2762C55.7999 20.3629 55.493 19.3957 55.179 18.3722C54.8637 17.3536 54.5581 16.3235 54.2656 15.2811H57.4085C57.513 15.7602 57.6316 16.2864 57.7598 16.853C57.887 17.4208 58.0211 18.0054 58.1615 18.6067C58.3016 19.2059 58.4516 19.8084 58.605 20.4166C58.7596 21.0248 58.918 21.6071 59.0784 22.1672C59.2522 21.5803 59.4224 20.9809 59.589 20.3673C59.7532 19.7525 59.9153 19.1488 60.0698 18.5553C60.222 17.9626 60.3718 17.3871 60.5086 16.833C60.6477 16.2796 60.7712 15.7602 60.8801 15.2811H63.0392C63.1492 15.7602 63.2655 16.2796 63.401 16.833C63.5328 17.3871 63.6733 17.9626 63.8218 18.5553C63.9657 19.1488 64.1226 19.7525 64.2798 20.3673C64.4415 20.9809 64.6071 21.5803 64.7784 22.1672C64.9403 21.6071 65.1008 21.0248 65.2627 20.4166C65.4246 19.8084 65.5767 19.2059 65.7158 18.6067C65.855 18.0054 65.9892 17.4208 66.1186 16.853C66.2469 16.2864 66.3633 15.7602 66.4698 15.2811Z" fill="white"/>
</mask>
<g mask="url(#mask6_13070_41600)">
<path id="Path_11" d="M-144.086 55.3867L276.102 55.3867L276.102 -500.952H-144.086L-144.086 55.3867Z" fill="var(--logo-color, #00425f)"/>
</g>
</g>
<g id="Clipped_8">
<mask id="mask7_13070_41600" style="mask-type:luminance" maskUnits="userSpaceOnUse" x="54" y="15" width="16" height="11">
<path id="interswitch@1x-i_2" fill-rule="evenodd" clip-rule="evenodd" d="M66.4698 15.2811L69.5722 15.2811C69.2774 16.3235 68.9741 17.3536 68.6587 18.3722C68.3411 19.3957 68.0378 20.3629 67.7344 21.2762C67.4359 22.1928 67.1412 23.0355 66.8544 23.8119C66.5657 24.5851 66.2996 25.2513 66.0622 25.8125H63.7403C63.4046 24.7983 63.0787 23.7904 62.7574 22.7884C62.4373 21.7901 62.1472 20.7802 61.8788 19.7658C61.6113 20.7802 61.3296 21.7901 61.029 22.7884C60.7291 23.7904 60.4102 24.7983 60.0806 25.8125H57.7586C57.5176 25.2513 57.2552 24.5851 56.9746 23.8119C56.6918 23.0355 56.4028 22.1928 56.0997 21.2762C55.7999 20.3629 55.493 19.3957 55.179 18.3722C54.8637 17.3536 54.5581 16.3235 54.2656 15.2811H57.4085C57.513 15.7602 57.6316 16.2864 57.7598 16.853C57.887 17.4208 58.0211 18.0054 58.1615 18.6067C58.3016 19.2059 58.4516 19.8084 58.605 20.4166C58.7596 21.0248 58.918 21.6071 59.0784 22.1672C59.2522 21.5803 59.4224 20.9809 59.589 20.3673C59.7532 19.7525 59.9153 19.1488 60.0698 18.5553C60.222 17.9626 60.3718 17.3871 60.5086 16.833C60.6477 16.2796 60.7712 15.7602 60.8801 15.2811H63.0392C63.1492 15.7602 63.2655 16.2796 63.401 16.833C63.5328 17.3871 63.6733 17.9626 63.8218 18.5553C63.9657 19.1488 64.1226 19.7525 64.2798 20.3673C64.4415 20.9809 64.6071 21.5803 64.7784 22.1672C64.9403 21.6071 65.1008 21.0248 65.2627 20.4166C65.4246 19.8084 65.5767 19.2059 65.7158 18.6067C65.855 18.0054 65.9892 17.4208 66.1186 16.853C66.2469 16.2864 66.3633 15.7602 66.4698 15.2811Z" fill="white"/>
</mask>
<g mask="url(#mask7_13070_41600)">
<path id="Path_12" d="M49.2656 30.4883H74.5767V10.6066H49.2656V30.4883Z" fill="var(--logo-color, #00425f)"/>
</g>
</g>
</g>
<path id="Path_13" d="M71.6797 25.8086H74.6574V15.2794H71.6797V25.8086Z" fill="var(--logo-color, #00425f)"/>
<g id="Group_7">
<g id="Clipped_9">
<mask id="mask8_13070_41600" style="mask-type:luminance" maskUnits="userSpaceOnUse" x="71" y="15" width="4" height="11">
<path id="interswitch@1x-k" fill-rule="evenodd" clip-rule="evenodd" d="M71.6797 25.8086V15.2794H74.6576V25.8086H71.6797Z" fill="white"/>
</mask>
<g mask="url(#mask8_13070_41600)">
<path id="Path_14" d="M-144.086 55.3867L276.102 55.3867L276.102 -500.952H-144.086L-144.086 55.3867Z" fill="var(--logo-color, #00425f)"/>
</g>
</g>
<g id="Clipped_10">
<mask id="mask9_13070_41600" style="mask-type:luminance" maskUnits="userSpaceOnUse" x="71" y="15" width="4" height="11">
<path id="interswitch@1x-k_2" fill-rule="evenodd" clip-rule="evenodd" d="M71.6797 25.8086V15.2794H74.6576V25.8086H71.6797Z" fill="white"/>
</mask>
<g mask="url(#mask9_13070_41600)">
<path id="Path_15" d="M66.6797 30.4844H79.6618V10.6048H66.6797V30.4844Z" fill="var(--logo-color, #00425f)"/>
</g>
</g>
</g>
<path id="Path_16" d="M77.0312 12.6516L80.0113 12.1232V15.2827H82.9603V17.7601H80.0113V21.4652C80.0113 22.0923 80.1216 22.5974 80.3409 22.9665C80.5603 23.3401 81.0049 23.5275 81.6704 23.5275C81.9928 23.5275 82.3236 23.5005 82.6617 23.4388C83.0032 23.3781 83.3126 23.2919 83.5943 23.1875L84.0128 25.5102C83.6518 25.658 83.2502 25.7838 82.8129 25.8915C82.3702 25.9969 81.8346 26.0508 81.1919 26.0508C80.377 26.0508 79.7044 25.941 79.171 25.7187C78.6364 25.5022 78.2095 25.1959 77.8908 24.7986C77.5719 24.4082 77.349 23.9268 77.2208 23.3692C77.0913 22.8071 77.0312 22.1855 77.0312 21.5065V12.6516Z" fill="var(--logo-color, #00425f)"/>
<g id="Group_8">
<g id="Clipped_11">
<mask id="mask10_13070_41600" style="mask-type:luminance" maskUnits="userSpaceOnUse" x="77" y="12" width="8" height="15">
<path id="interswitch@1x-m" fill-rule="evenodd" clip-rule="evenodd" d="M77.0312 12.6516L80.0111 12.1232V15.2827H82.9601V17.7601H80.0111V21.4652C80.0111 22.0923 80.1216 22.5972 80.3409 22.9665C80.5603 23.3401 81.0049 23.5273 81.6702 23.5273C81.9926 23.5273 82.3237 23.5005 82.6617 23.4388C83.0032 23.378 83.3126 23.2919 83.5941 23.1875L84.0126 25.51C83.6518 25.658 83.25 25.7838 82.8129 25.8915C82.3702 25.9969 81.8347 26.0508 81.1919 26.0508C80.377 26.0508 79.7043 25.941 79.171 25.7187C78.6362 25.502 78.2095 25.1959 77.8908 24.7988C77.5719 24.4082 77.349 23.927 77.2206 23.3692C77.0913 22.8071 77.0312 22.1853 77.0312 21.5067V12.6516Z" fill="white"/>
</mask>
<g mask="url(#mask10_13070_41600)">
<path id="Path_17" d="M-144.078 55.3828L276.109 55.3828L276.109 -500.956H-144.078L-144.078 55.3828Z" fill="var(--logo-color, #00425f)"/>
</g>
</g>
<g id="Clipped_12">
<mask id="mask11_13070_41600" style="mask-type:luminance" maskUnits="userSpaceOnUse" x="77" y="12" width="8" height="15">
<path id="interswitch@1x-m_2" fill-rule="evenodd" clip-rule="evenodd" d="M77.0312 12.6516L80.0111 12.1232V15.2827H82.9601V17.7601H80.0111V21.4652C80.0111 22.0923 80.1216 22.5972 80.3409 22.9665C80.5603 23.3401 81.0049 23.5273 81.6702 23.5273C81.9926 23.5273 82.3237 23.5005 82.6617 23.4388C83.0032 23.378 83.3126 23.2919 83.5941 23.1875L84.0126 25.51C83.6518 25.658 83.25 25.7838 82.8129 25.8915C82.3702 25.9969 81.8347 26.0508 81.1919 26.0508C80.377 26.0508 79.7043 25.941 79.171 25.7187C78.6362 25.502 78.2095 25.1959 77.8908 24.7988C77.5719 24.4082 77.349 23.927 77.2206 23.3692C77.0913 22.8071 77.0312 22.1853 77.0312 21.5067V12.6516Z" fill="white"/>
</mask>
<g mask="url(#mask11_13070_41600)">
<path id="Path_18" d="M72.0312 30.7266H89.0173V7.4485H72.0312V30.7266Z" fill="var(--logo-color, #00425f)"/>
</g>
</g>
</g>
<path id="Path_19" d="M85.0625 20.5498C85.0625 19.7878 85.1862 19.0699 85.4331 18.3967C85.6799 17.7212 86.036 17.1356 86.5025 16.6339C86.9698 16.1325 87.5356 15.7373 88.2044 15.4424C88.8698 15.1518 89.6298 15.0014 90.4833 15.0014C91.043 15.0014 91.5574 15.0542 92.0248 15.1529C92.4925 15.255 92.948 15.3976 93.3854 15.5826L92.7671 17.9648C92.4853 17.8592 92.1795 17.7672 91.844 17.6842C91.5106 17.6055 91.1354 17.5642 90.7231 17.5642C89.8433 17.5642 89.185 17.839 88.7546 18.3865C88.3171 18.9353 88.1037 19.6545 88.1037 20.5498C88.1037 21.4956 88.3063 22.2305 88.7164 22.7512C89.1191 23.2707 89.8312 23.5322 90.8441 23.5322C91.2049 23.5322 91.5897 23.4972 92.0057 23.4311C92.4181 23.3638 92.798 23.2583 93.1481 23.1103L93.5654 25.5541C93.2175 25.701 92.7861 25.8244 92.266 25.9332C91.7432 26.039 91.1712 26.0938 90.5457 26.0938C89.5854 26.0938 88.756 25.9479 88.0642 25.6617C87.3716 25.3756 86.7996 24.9851 86.3536 24.4914C85.9041 23.9967 85.5805 23.4133 85.3733 22.74C85.1658 22.0657 85.0625 21.3343 85.0625 20.5498Z" fill="var(--logo-color, #00425f)"/>
<g id="Group_9">
<g id="Clipped_13">
<mask id="mask12_13070_41600" style="mask-type:luminance" maskUnits="userSpaceOnUse" x="85" y="15" width="9" height="12">
<path id="interswitch@1x-o" fill-rule="evenodd" clip-rule="evenodd" d="M88.2044 15.4424C88.8698 15.1518 89.6298 15.0014 90.4833 15.0014C91.043 15.0014 91.5574 15.054 92.0248 15.1527C92.4923 15.255 92.948 15.3974 93.3854 15.5826L92.767 17.9646C92.4851 17.8592 92.1795 17.7672 91.8438 17.6842C91.5104 17.6054 91.1354 17.564 90.7229 17.564C89.8433 17.564 89.185 17.839 88.7546 18.3865C88.3171 18.9351 88.1037 19.6543 88.1037 20.5498C88.1037 21.4956 88.3065 22.2305 88.7164 22.7512C89.1191 23.2707 89.831 23.5322 90.8439 23.5322C91.2049 23.5322 91.5897 23.4972 92.0057 23.4311C92.4181 23.3638 92.798 23.2583 93.1479 23.1101L93.5652 25.5541C93.2177 25.701 92.7861 25.8243 92.2658 25.9332C91.7432 26.0388 91.1714 26.0938 90.5457 26.0938C89.5852 26.0938 88.756 25.9477 88.0642 25.6615C87.3716 25.3754 86.7996 24.9851 86.3534 24.4916C85.9043 23.9967 85.5805 23.4133 85.3733 22.74C85.1658 22.0657 85.0625 21.3341 85.0625 20.5498C85.0625 19.7878 85.1862 19.0699 85.4331 18.3967C85.6799 17.7212 86.036 17.1354 86.5023 16.6337C86.9698 16.1323 87.5356 15.7373 88.2044 15.4424Z" fill="white"/>
</mask>
<g mask="url(#mask12_13070_41600)">
<path id="Path_20" d="M-144.086 55.3867L276.101 55.3867L276.101 -500.952H-144.086L-144.086 55.3867Z" fill="var(--logo-color, #00425f)"/>
</g>
</g>
<g id="Clipped_14">
<mask id="mask13_13070_41600" style="mask-type:luminance" maskUnits="userSpaceOnUse" x="85" y="15" width="9" height="12">
<path id="interswitch@1x-o_2" fill-rule="evenodd" clip-rule="evenodd" d="M88.2044 15.4424C88.8698 15.1518 89.6298 15.0014 90.4833 15.0014C91.043 15.0014 91.5574 15.054 92.0248 15.1527C92.4923 15.255 92.948 15.3974 93.3854 15.5826L92.767 17.9646C92.4851 17.8592 92.1795 17.7672 91.8438 17.6842C91.5104 17.6054 91.1354 17.564 90.7229 17.564C89.8433 17.564 89.185 17.839 88.7546 18.3865C88.3171 18.9351 88.1037 19.6543 88.1037 20.5498C88.1037 21.4956 88.3065 22.2305 88.7164 22.7512C89.1191 23.2707 89.831 23.5322 90.8439 23.5322C91.2049 23.5322 91.5897 23.4972 92.0057 23.4311C92.4181 23.3638 92.798 23.2583 93.1479 23.1101L93.5652 25.5541C93.2177 25.701 92.7861 25.8243 92.2658 25.9332C91.7432 26.0388 91.1714 26.0938 90.5457 26.0938C89.5852 26.0938 88.756 25.9477 88.0642 25.6615C87.3716 25.3754 86.7996 24.9851 86.3534 24.4916C85.9043 23.9967 85.5805 23.4133 85.3733 22.74C85.1658 22.0657 85.0625 21.3341 85.0625 20.5498C85.0625 19.7878 85.1862 19.0699 85.4331 18.3967C85.6799 17.7212 86.036 17.1354 86.5023 16.6337C86.9698 16.1323 87.5356 15.7373 88.2044 15.4424Z" fill="white"/>
</mask>
<g mask="url(#mask13_13070_41600)">
<path id="Path_21" d="M80.0625 30.7695H98.5695V10.3267H80.0625V30.7695Z" fill="var(--logo-color, #00425f)"/>
</g>
</g>
</g>
<path id="Path_22" d="M95.4922 25.8086V12.6494L98.4734 12.1255V15.3233C98.6723 15.257 98.9277 15.1931 99.2443 15.1326C99.5558 15.0731 99.8615 15.0416 100.154 15.0416C101.006 15.0416 101.715 15.1594 102.283 15.3917C102.849 15.6252 103.305 15.9562 103.643 16.3835C103.986 16.8089 104.224 17.3182 104.366 17.9029C104.504 18.4917 104.574 19.1472 104.574 19.8675V25.8086H101.594V20.2253C101.594 19.2648 101.47 18.5849 101.225 18.1822C100.977 17.786 100.52 17.5853 99.8543 17.5853C99.5835 17.5853 99.3363 17.609 99.1015 17.6538C98.8689 17.7009 98.6592 17.7525 98.4734 17.8052V25.8086H95.4922Z" fill="var(--logo-color, #00425f)"/>
<g id="Group_10">
<g id="Clipped_15">
<mask id="mask14_13070_41600" style="mask-type:luminance" maskUnits="userSpaceOnUse" x="95" y="12" width="10" height="14">
<path id="interswitch@1x-q" fill-rule="evenodd" clip-rule="evenodd" d="M95.4922 12.6494L98.4732 12.1255V15.3235C98.6723 15.257 98.9277 15.1931 99.2443 15.1326C99.5558 15.0731 99.8615 15.0418 100.154 15.0418C101.006 15.0418 101.715 15.1596 102.283 15.3917C102.849 15.6253 103.306 15.9562 103.643 16.3837C103.986 16.8089 104.224 17.3182 104.366 17.903C104.504 18.4919 104.574 19.1472 104.574 19.8677V25.8086H101.594V20.2253C101.594 19.265 101.47 18.5849 101.225 18.1822C100.977 17.7861 100.52 17.5853 99.8543 17.5853C99.5835 17.5853 99.3363 17.609 99.1015 17.6539C98.8689 17.7009 98.6592 17.7525 98.4732 17.8052V25.8086H95.4922V12.6494Z" fill="white"/>
</mask>
<g mask="url(#mask14_13070_41600)">
<path id="Path_23" d="M-144.086 55.3867L276.101 55.3867L276.101 -500.952H-144.086L-144.086 55.3867Z" fill="var(--logo-color, #00425f)"/>
</g>
</g>
<g id="Clipped_16">
<mask id="mask15_13070_41600" style="mask-type:luminance" maskUnits="userSpaceOnUse" x="95" y="12" width="10" height="14">
<path id="interswitch@1x-q_2" fill-rule="evenodd" clip-rule="evenodd" d="M95.4922 12.6494L98.4732 12.1255V15.3235C98.6723 15.257 98.9277 15.1931 99.2443 15.1326C99.5558 15.0731 99.8615 15.0418 100.154 15.0418C101.006 15.0418 101.715 15.1596 102.283 15.3917C102.849 15.6253 103.306 15.9562 103.643 16.3837C103.986 16.8089 104.224 17.3182 104.366 17.903C104.504 18.4919 104.574 19.1472 104.574 19.8677V25.8086H101.594V20.2253C101.594 19.265 101.47 18.5849 101.225 18.1822C100.977 17.7861 100.52 17.5853 99.8543 17.5853C99.5835 17.5853 99.3363 17.609 99.1015 17.6539C98.8689 17.7009 98.6592 17.7525 98.4732 17.8052V25.8086H95.4922V12.6494Z" fill="white"/>
</mask>
<g mask="url(#mask15_13070_41600)">
<path id="Path_24" d="M90.4922 30.4844H109.578V7.45078H90.4922V30.4844Z" fill="var(--logo-color, #00425f)"/>
</g>
</g>
</g>
<path id="Path_25" d="M5.60938 25.8125L5.60938 16.2707C5.60938 16.2707 7.10776 15.0735 10.3851 15.0735C13.3675 15.0735 15.0052 16.5648 15.0052 19.8467V25.8125H12.0263V19.8467C12.0263 17.7564 10.9809 17.6116 10.0878 17.6116C9.19474 17.6116 8.59662 18.0559 8.59662 18.0559V25.8125H5.60938Z" fill="var(--logo-color, #00425f)"/>
<g id="Group_11">
<g id="Clipped_17">
<mask id="mask16_13070_41600" style="mask-type:luminance" maskUnits="userSpaceOnUse" x="5" y="15" width="11" height="11">
<path id="interswitch@1x-s" fill-rule="evenodd" clip-rule="evenodd" d="M5.60938 16.2707C5.60938 16.2707 7.10776 15.0735 10.3851 15.0735C13.3675 15.0735 15.005 16.5646 15.005 19.8469V25.8125H12.0263V19.8469C12.0263 17.7562 10.9809 17.6116 10.0878 17.6116C9.19474 17.6116 8.59662 18.0561 8.59662 18.0561V25.8125H5.60938L5.60938 16.2707Z" fill="white"/>
</mask>
<g mask="url(#mask16_13070_41600)">
<path id="Path_26" d="M-144.086 55.3867L276.101 55.3867L276.101 -500.952H-144.086L-144.086 55.3867Z" fill="var(--logo-color, #00425f)"/>
</g>
</g>
<g id="Clipped_18">
<mask id="mask17_13070_41600" style="mask-type:luminance" maskUnits="userSpaceOnUse" x="5" y="15" width="11" height="11">
<path id="interswitch@1x-s_2" fill-rule="evenodd" clip-rule="evenodd" d="M5.60938 16.2707C5.60938 16.2707 7.10776 15.0735 10.3851 15.0735C13.3675 15.0735 15.005 16.5646 15.005 19.8469V25.8125H12.0263V19.8469C12.0263 17.7562 10.9809 17.6116 10.0878 17.6116C9.19474 17.6116 8.59662 18.0561 8.59662 18.0561V25.8125H5.60938L5.60938 16.2707Z" fill="white"/>
</mask>
<g mask="url(#mask17_13070_41600)">
<path id="Path_27" d="M0.609375 30.4883H20.0093V10.3991H0.609375L0.609375 30.4883Z" fill="var(--logo-color, #00425f)"/>
</g>
</g>
</g>
<path id="Path_28" d="M0 25.8125L0 12.651L2.98239 12.1258L2.98239 25.8125H0Z" fill="var(--logo-color, #00425f)"/>
<g id="Group_12">
<g id="Clipped_19">
<mask id="mask18_13070_41600" style="mask-type:luminance" maskUnits="userSpaceOnUse" x="0" y="12" width="3" height="14">
<path id="interswitch@1x-u" fill-rule="evenodd" clip-rule="evenodd" d="M0 12.6512L2.98239 12.1258L2.98239 25.8125H0L0 12.6512Z" fill="white"/>
</mask>
<g mask="url(#mask18_13070_41600)">
<path id="Path_29" d="M-144.078 55.3867L276.109 55.3867L276.109 -500.952H-144.078L-144.078 55.3867Z" fill="var(--logo-color, #00425f)"/>
</g>
</g>
<g id="Clipped_20">
<mask id="mask19_13070_41600" style="mask-type:luminance" maskUnits="userSpaceOnUse" x="0" y="12" width="3" height="14">
<path id="interswitch@1x-u_2" fill-rule="evenodd" clip-rule="evenodd" d="M0 12.6512L2.98239 12.1258L2.98239 25.8125H0L0 12.6512Z" fill="white"/>
</mask>
<g mask="url(#mask19_13070_41600)">
<path id="Path_30" d="M-5 30.4883H7.98699L7.98699 7.4514H-5L-5 30.4883Z" fill="var(--logo-color, #00425f)"/>
</g>
</g>
</g>
<path id="Shape" fill-rule="evenodd" clip-rule="evenodd" d="M28.5123 21.3034H35.2204C35.5201 19.5103 35.2204 15.0425 30.7469 15.0425C27.7655 15.0425 25.6797 17.1271 25.6797 20.4103C25.6797 24.5851 28.3624 26.0742 31.3462 26.0742C33.432 26.0742 34.922 25.4828 34.922 25.4828L34.6235 23.094C34.6235 23.094 33.1323 23.5396 31.6409 23.5396C28.6621 23.5396 28.5123 21.3034 28.5123 21.3034ZM28.5123 19.2143C28.5123 19.2143 28.6621 17.1274 30.6006 17.1274C32.5378 17.1274 32.6839 19.2143 32.6839 19.2143H28.5123Z" fill="var(--logo-color, #00425f)"/>
<g id="Group_13">
<g id="Clipped_21">
<mask id="mask20_13070_41600" style="mask-type:luminance" maskUnits="userSpaceOnUse" x="25" y="15" width="11" height="12">
<path id="interswitch@1x-w" fill-rule="evenodd" clip-rule="evenodd" d="M25.6797 20.4101C25.6797 17.127 27.7655 15.0423 30.7467 15.0423C35.2203 15.0423 35.5199 19.5103 35.2203 21.3032H28.5123C28.5123 21.3032 28.6621 23.5394 31.6407 23.5394C33.1321 23.5394 34.6233 23.0939 34.6233 23.0939L34.9218 25.4826C34.9218 25.4826 33.4318 26.0742 31.346 26.0742C28.3624 26.0742 25.6797 24.5851 25.6797 20.4101ZM30.6004 17.1273C28.6621 17.1273 28.5123 19.2143 28.5123 19.2143H32.6839C32.6839 19.2143 32.5376 17.1273 30.6004 17.1273Z" fill="white"/>
</mask>
<g mask="url(#mask20_13070_41600)">
<path id="Path_31" d="M-144.078 55.3867L276.109 55.3867L276.109 -500.952H-144.078L-144.078 55.3867Z" fill="var(--logo-color, #00425f)"/>
</g>
</g>
<g id="Clipped_22">
<mask id="mask21_13070_41600" style="mask-type:luminance" maskUnits="userSpaceOnUse" x="25" y="15" width="11" height="12">
<path id="interswitch@1x-w_2" fill-rule="evenodd" clip-rule="evenodd" d="M25.6797 20.4101C25.6797 17.127 27.7655 15.0423 30.7467 15.0423C35.2203 15.0423 35.5199 19.5103 35.2203 21.3032H28.5123C28.5123 21.3032 28.6621 23.5394 31.6407 23.5394C33.1321 23.5394 34.6233 23.0939 34.6233 23.0939L34.9218 25.4826C34.9218 25.4826 33.4318 26.0742 31.346 26.0742C28.3624 26.0742 25.6797 24.5851 25.6797 20.4101ZM30.6004 17.1273C28.6621 17.1273 28.5123 19.2143 28.5123 19.2143H32.6839C32.6839 19.2143 32.5376 17.1273 30.6004 17.1273Z" fill="white"/>
</mask>
<g mask="url(#mask21_13070_41600)">
<path id="Path_32" d="M20.6797 30.75H40.3082V10.3679H20.6797V30.75Z" fill="var(--logo-color, #00425f)"/>
</g>
</g>
</g>
<g id="Group_14">
<g id="Clipped_23">
<mask id="mask22_13070_41600" style="mask-type:luminance" maskUnits="userSpaceOnUse" x="108" y="10" width="21" height="24">
<path id="interswitch@1x-y" fill-rule="evenodd" clip-rule="evenodd" d="M108.523 12.1281C108.523 11.4919 117.098 10.119 122.848 10.119C125.342 10.119 127.304 10.3772 127.806 11.0655C130.396 14.2611 112.168 34.3094 110.649 33.7013C109.431 33.3972 120.367 20.6364 118.544 15.4696C117.634 12.7374 108.523 13.0413 108.523 12.1281Z" fill="white"/>
</mask>
<g mask="url(#mask22_13070_41600)">
<path id="Path_33" d="M103.523 38.3906H133.062V5.4445H103.523V38.3906Z" fill="#EE312A"/>
</g>
</g>
</g>
<g id="Group_15">
<g id="Clipped_24">
<mask id="mask23_13070_41600" style="mask-type:luminance" maskUnits="userSpaceOnUse" x="124" y="0" width="8" height="9">
<path id="interswitch@1x-A" fill-rule="evenodd" clip-rule="evenodd" d="M124.008 4.23027C124.008 2.048 125.776 0.281961 127.955 0.281961C130.137 0.281961 131.903 2.048 131.903 4.23027C131.903 6.41365 130.137 8.17969 127.955 8.17969C125.776 8.17969 124.008 6.41365 124.008 4.23027Z" fill="white"/>
</mask>
<g mask="url(#mask23_13070_41600)">
<path id="Path_34" d="M119.008 12.8555L136.907 12.8555V-4.39281H119.008V12.8555Z" fill="#EE312A"/>
</g>
</g>
</g>
</g>
</svg>
